STARTFONT 2.1
FONT -FontForge-Satisfy-Book-R-Normal--36-360-72-72-P-156-ISO10646-1
SIZE 36 72 72
FONTBOUNDINGBOX 42 52 -8 -18
COMMENT "Generated by fontforge, http://fontforge.sourceforge.net"
COMMENT "Copyright (c) 2011 by Font Diner, Inc. All rights reserved."
STARTPROPERTIES 39
FOUNDRY "FontForge"
FAMILY_NAME "Satisfy"
WEIGHT_NAME "Book"
SLANT "R"
SETWIDTH_NAME "Normal"
ADD_STYLE_NAME ""
PIXEL_SIZE 36
POINT_SIZE 360
RESOLUTION_X 72
RESOLUTION_Y 72
SPACING "P"
AVERAGE_WIDTH 156
CHARSET_REGISTRY "ISO10646"
CHARSET_ENCODING "1"
FONTNAME_REGISTRY ""
CHARSET_COLLECTIONS "ISO10646-1"
FONT_NAME "Satisfy-Regular"
FACE_NAME "Satisfy Regular"
COPYRIGHT "Copyright (c) 2011 by Font Diner, Inc. All rights reserved."
FONT_VERSION "1.001"
FONT_ASCENT 29
FONT_DESCENT 7
UNDERLINE_POSITION -4
UNDERLINE_THICKNESS 2
X_HEIGHT 14
CAP_HEIGHT 26
RAW_ASCENT 799
RAW_DESCENT 200
NORM_SPACE 10
RELATIVE_WEIGHT 40
RELATIVE_SETWIDTH 50
SUPERSCRIPT_X 0
SUPERSCRIPT_Y 17
SUPERSCRIPT_SIZE 23
SUBSCRIPT_X 0
SUBSCRIPT_Y 5
SUBSCRIPT_SIZE 23
AVG_LOWERCASE_WIDTH 148
AVG_UPPERCASE_WIDTH 203
ENDPROPERTIES
CHARS 227
STARTCHAR space
ENCODING 32
SWIDTH 280 0
DWIDTH 10 0
BBX 1 1 0 0
BITMAP
00
ENDCHAR
STARTCHAR exclam
ENCODING 33
SWIDTH 249 0
DWIDTH 9 0
BBX 11 27 -1 -1
BITMAP
01E0
01C0
03C0
03C0
0380
0380
0780
0780
0700
0700
0700
0F00
0E00
0E00
0E00
1C00
1C00
1C00
1C00
1800
3800
0000
0000
3800
7800
F800
6000
ENDCHAR
STARTCHAR quotedbl
ENCODING 34
SWIDTH 249 0
DWIDTH 9 0
BBX 11 11 1 16
BITMAP
0020
1CC0
39C0
39C0
39C0
3180
7380
7380
7300
6300
E700
ENDCHAR
STARTCHAR numbersign
ENCODING 35
SWIDTH 417 0
DWIDTH 15 0
BBX 17 19 -1 4
BITMAP
004300
00C600
01C600
018E00
018C00
0FFF00
3FFF80
3FFF00
071800
063800
063000
3FFF00
7FFE00
FC6000
1C6000
18E000
18E000
38C000
31C000
ENDCHAR
STARTCHAR dollar
ENCODING 36
SWIDTH 292 0
DWIDTH 11 0
BBX 13 26 -1 0
BITMAP
0060
00C0
00C0
03F0
0E30
0C38
1C38
1838
1838
1C70
1C00
0E00
0E00
0600
0700
0300
0380
6180
C180
C180
C180
E300
7F00
1800
1800
3000
ENDCHAR
STARTCHAR percent
ENCODING 37
SWIDTH 574 0
DWIDTH 21 0
BBX 21 27 0 -1
BITMAP
078038
0FC070
1CC0E0
38E1C0
30E1C0
30E380
70C700
70C600
71CE00
319C00
3F9800
3F3800
007000
006000
00C380
01CFC0
019C60
039860
073860
063060
0E3060
1C30E0
3830C0
3831C0
703B80
F01F00
400400
ENDCHAR
STARTCHAR ampersand
ENCODING 38
SWIDTH 460 0
DWIDTH 17 0
BBX 18 29 -2 -2
BITMAP
000600
001F80
003180
006180
006300
00E300
00E600
00EE00
00FC00
00F800
00F000
01E000
03E000
07E000
0FE000
0EE000
1CE000
3CE000
78E000
70F000
F0F0C0
E07180
E07300
E07E00
F07C00
7FF800
3FFC00
1F3E00
001800
ENDCHAR
STARTCHAR quotesingle
ENCODING 39
SWIDTH 113 0
DWIDTH 4 0
BBX 6 10 1 16
BITMAP
1C
38
38
38
30
70
70
70
60
E0
ENDCHAR
STARTCHAR parenleft
ENCODING 40
SWIDTH 234 0
DWIDTH 8 0
BBX 11 34 1 -4
BITMAP
0020
00C0
01C0
0380
0300
0700
0600
0E00
0C00
1C00
1800
3800
3800
3000
7000
7000
7000
6000
E000
E000
E000
E000
E000
E000
C000
C000
C000
C000
C000
C000
E000
6000
6000
2000
ENDCHAR
STARTCHAR parenright
ENCODING 41
SWIDTH 204 0
DWIDTH 7 0
BBX 11 34 -4 -4
BITMAP
0080
0080
00C0
00C0
00C0
00E0
00E0
00E0
00E0
00E0
00E0
00E0
00E0
00E0
00E0
01C0
01C0
01C0
01C0
0180
0380
0380
0300
0700
0700
0600
0E00
0C00
1C00
3800
3000
7000
E000
8000
ENDCHAR
STARTCHAR asterisk
ENCODING 42
SWIDTH 327 0
DWIDTH 12 0
BBX 12 12 2 14
BITMAP
0780
0700
4700
E610
FEF0
3FF0
0E00
3B00
7B80
F3C0
71C0
2100
ENDCHAR
STARTCHAR plus
ENCODING 43
SWIDTH 350 0
DWIDTH 13 0
BBX 12 12 0 7
BITMAP
0380
0380
0300
0700
0700
FFF0
FFF0
8600
0E00
0E00
0E00
0C00
ENDCHAR
STARTCHAR comma
ENCODING 44
SWIDTH 200 0
DWIDTH 7 0
BBX 4 7 -1 -4
BITMAP
20
F0
F0
F0
30
60
C0
ENDCHAR
STARTCHAR hyphen
ENCODING 45
SWIDTH 353 0
DWIDTH 13 0
BBX 13 4 -1 9
BITMAP
07E0
7FF8
7FF8
8000
ENDCHAR
STARTCHAR period
ENCODING 46
SWIDTH 213 0
DWIDTH 8 0
BBX 5 4 -1 -1
BITMAP
30
F8
F0
E0
ENDCHAR
STARTCHAR slash
ENCODING 47
SWIDTH 262 0
DWIDTH 9 0
BBX 18 27 -4 -1
BITMAP
0001C0
000380
000300
000700
000E00
000C00
001C00
001800
003800
003000
007000
00E000
00C000
01C000
018000
038000
030000
070000
060000
0E0000
1C0000
1C0000
380000
380000
700000
700000
C00000
ENDCHAR
STARTCHAR zero
ENCODING 48
SWIDTH 489 0
DWIDTH 18 0
BBX 15 28 1 -1
BITMAP
0020
00F8
03FC
078C
070C
0E0E
1E0E
1C0E
3C0E
380E
380E
700E
700E
700E
F00E
F01C
E01C
E01C
E01C
E038
E038
E070
6070
70E0
71E0
3BC0
3F00
0E00
ENDCHAR
STARTCHAR one
ENCODING 49
SWIDTH 272 0
DWIDTH 10 0
BBX 8 27 1 -1
BITMAP
07
0F
1F
1F
0E
0E
0E
0E
0C
1C
1C
1C
1C
18
38
38
38
30
70
70
60
E0
E0
E0
E0
E0
40
ENDCHAR
STARTCHAR two
ENCODING 50
SWIDTH 448 0
DWIDTH 16 0
BBX 17 28 -1 -1
BITMAP
000800
00FE00
01C700
038700
070780
0F0780
0E0700
0E0700
0F0700
000F00
000E00
001E00
001C00
003800
007000
00F000
01E000
03C000
078000
0F0000
1E0000
380000
700000
700000
EFF800
FFF800
7FF800
600800
ENDCHAR
STARTCHAR three
ENCODING 51
SWIDTH 462 0
DWIDTH 17 0
BBX 16 28 0 -1
BITMAP
0020
03FC
07DE
0F07
1E07
1C07
1C07
1C0F
1E0E
001E
001C
0038
0070
01E0
07E0
07F8
0438
001C
001C
001C
001C
3038
E038
E070
F0F0
FDE0
7FC0
1F00
ENDCHAR
STARTCHAR four
ENCODING 52
SWIDTH 452 0
DWIDTH 16 0
BBX 15 27 0 -1
BITMAP
000E
003E
007E
007E
00EC
01CC
038C
071C
0F18
1E18
1C18
3838
7038
E7FC
FFFC
7FFC
4074
0070
00F0
00E0
00E0
00E0
01E0
01E0
01E0
01E0
00C0
ENDCHAR
STARTCHAR five
ENCODING 53
SWIDTH 444 0
DWIDTH 16 0
BBX 17 27 0 -1
BITMAP
01FF00
07FF80
07FF80
060700
060100
0E0000
0C0000
0C0000
1C0000
180000
19F000
3BF800
3F7800
3E1C00
3C1C00
001C00
001800
001800
001800
203800
603000
E07000
F0E000
FFC000
FF8000
7F0000
1C0000
ENDCHAR
STARTCHAR six
ENCODING 54
SWIDTH 477 0
DWIDTH 17 0
BBX 15 27 1 -1
BITMAP
007C
01FC
038E
070E
071C
0E1C
1C10
1C00
3C00
38E0
3BF8
7738
7E1C
7C1C
7C1C
FC1C
F01C
E01C
E038
E038
E038
7070
7070
70E0
39C0
3F80
0E00
ENDCHAR
STARTCHAR seven
ENCODING 55
SWIDTH 406 0
DWIDTH 15 0
BBX 14 26 2 0
BITMAP
3FFC
7FFC
7F1C
701C
4038
0030
0070
00E0
00E0
01C0
0380
0380
0700
0F00
0E00
1E00
1C00
3C00
3800
7800
7000
7000
F000
F000
E000
F000
ENDCHAR
STARTCHAR eight
ENCODING 56
SWIDTH 444 0
DWIDTH 16 0
BBX 16 27 0 -1
BITMAP
00FC
0186
0303
0703
0707
0606
0E0E
0F1C
0F3C
0778
07F0
03C0
07C0
0FE0
1CE0
38F0
7870
7070
E078
E078
C078
C070
C070
E0E0
E1E0
7F80
1E00
ENDCHAR
STARTCHAR nine
ENCODING 57
SWIDTH 462 0
DWIDTH 17 0
BBX 15 27 1 -1
BITMAP
01F8
0798
0F0C
0E0C
1C0C
1C0C
380E
380E
301E
701E
703C
703C
707C
706C
70FC
39D8
3FB8
1E38
0070
0070
40E0
C1E0
C1C0
F780
FF00
FE00
3800
ENDCHAR
STARTCHAR colon
ENCODING 58
SWIDTH 226 0
DWIDTH 8 0
BBX 7 11 -1 -1
BITMAP
1C
3E
3C
00
00
00
00
30
F8
F0
E0
ENDCHAR
STARTCHAR semicolon
ENCODING 59
SWIDTH 212 0
DWIDTH 8 0
BBX 6 14 -1 -4
BITMAP
3C
7C
78
00
00
00
00
20
F0
F0
F0
30
60
C0
ENDCHAR
STARTCHAR less
ENCODING 60
SWIDTH 271 0
DWIDTH 10 0
BBX 11 15 0 4
BITMAP
0060
03C0
0780
0F00
1C00
7800
F000
E000
E000
7000
7800
3800
3C00
1C00
0E00
ENDCHAR
STARTCHAR equal
ENCODING 61
SWIDTH 374 0
DWIDTH 13 0
BBX 13 8 0 8
BITMAP
1FF8
3FF8
7FF0
0000
07C0
FFF0
FFE0
8000
ENDCHAR
STARTCHAR greater
ENCODING 62
SWIDTH 250 0
DWIDTH 9 0
BBX 11 15 -2 4
BITMAP
0C00
0E00
0700
0700
0380
03C0
01C0
00E0
03C0
0780
0F00
1E00
3C00
7800
E000
ENDCHAR
STARTCHAR question
ENCODING 63
SWIDTH 413 0
DWIDTH 15 0
BBX 18 28 -1 -1
BITMAP
003800
01FF00
07FF80
0F0380
1E01C0
1C01C0
1C03C0
0E0380
000380
000780
000700
000E00
001C00
00F800
07F000
0F8000
0E0000
0E0000
1E0000
1C0000
1C0000
180000
300000
000000
100000
7C0000
F80000
700000
ENDCHAR
STARTCHAR at
ENCODING 64
SWIDTH 648 0
DWIDTH 23 0
BBX 24 24 -1 -1
BITMAP
003FC0
00FDF0
03C038
07001C
0E060C
1C1F46
183BE6
3873E6
70E3C7
71C7C7
6181C7
E38187
E30387
E70306
E70706
E7070E
E71E0C
63FE1C
71EE38
300E70
3C0FE0
0E07C0
07C000
008000
ENDCHAR
STARTCHAR A
ENCODING 65
SWIDTH 552 0
DWIDTH 20 0
BBX 22 34 -4 -8
BITMAP
0000F8
0001FC
00039C
00071C
000E1C
001C1C
001C18
003818
003838
007038
007038
007038
00E030
00E070
01E070
01C070
01C070
03C070
03FFE4
0FFFF8
7FE3F0
6700E0
0700E0
0F00E0
0F01E0
0E01C0
1E01C0
1E01C0
3E01C0
3C01C0
7C01E0
7801E0
8001F0
0001E0
ENDCHAR
STARTCHAR B
ENCODING 66
SWIDTH 607 0
DWIDTH 22 0
BBX 21 34 0 -7
BITMAP
006000
00FFC0
03FBE0
0FE0F0
1FC078
1DC078
09C078
038078
038078
038070
0700F0
0700E0
0701E0
0703C0
0E0780
0E7F00
0FFE00
0FFF00
1DE380
1C01C0
1C01C0
3C01E0
3801E0
3801E0
3801E0
7803C0
7003C0
7007C0
F00780
F00F00
F03E00
F1FC00
FFF000
1F0000
ENDCHAR
STARTCHAR C
ENCODING 67
SWIDTH 548 0
DWIDTH 20 0
BBX 20 34 0 -7
BITMAP
000300
003FC0
0078E0
00F0E0
01E070
03C070
0780F0
0700F0
0F00F0
1E00F0
1E01E0
1C03E0
3C01C0
3C0000
780000
780000
780000
780000
F00000
F00000
F00000
F00000
F00000
F00000
F00000
F00100
F00100
700300
780600
780C00
3C3800
1FF000
0FE000
010000
ENDCHAR
STARTCHAR D
ENCODING 68
SWIDTH 632 0
DWIDTH 23 0
BBX 22 33 0 -7
BITMAP
03FE00
07FF80
0F87C0
0E01E0
0800F0
01C070
03C078
038078
078038
078038
078038
07803C
070038
070038
0F0038
0F0078
0E0078
0E0078
0E0070
1E00F0
1C00F0
1C01E0
1C01E0
3803C0
380380
380780
780F00
701E00
703C00
F0F800
FFE000
7FC000
0C0000
ENDCHAR
STARTCHAR E
ENCODING 69
SWIDTH 523 0
DWIDTH 19 0
BBX 20 34 -1 -7
BITMAP
000100
001FE0
007870
01E070
03C030
038070
078070
0F0070
0F00F0
0F01E0
0F03C0
0F0080
0F0000
0F0000
078000
038000
01FC00
03FC00
0F3800
1E0000
3C0000
780000
700000
F00000
F00080
F00080
F00180
F00300
F00700
780E00
7E1C00
3FF800
0FF000
010000
ENDCHAR
STARTCHAR F
ENCODING 70
SWIDTH 585 0
DWIDTH 21 0
BBX 20 33 1 -7
BITMAP
03FFC0
0FFFE0
3E00F0
780070
700070
F800E0
7F00E0
7E01C0
3C01C0
000180
000380
000300
000700
000600
1FFFE0
1FFFC0
3C1C00
001C00
003800
003800
007800
007000
00F000
00E000
01E000
01E000
01E000
03C000
03C000
03C000
03C000
03C000
020000
ENDCHAR
STARTCHAR G
ENCODING 71
SWIDTH 612 0
DWIDTH 22 0
BBX 20 34 1 -7
BITMAP
000300
001F80
0079C0
00E0E0
01C0E0
03C0E0
0780E0
0F00E0
0F01E0
1E01E0
1E03C0
3C07C0
3C0380
3C0100
780000
780000
780000
F00000
F03FF0
F0FFE0
F0FFE0
F00380
E00380
E00380
E00700
E00700
E00E00
E00E00
F01C00
703800
707800
38F000
1FC000
078000
ENDCHAR
STARTCHAR H
ENCODING 72
SWIDTH 649 0
DWIDTH 23 0
BBX 24 33 0 -7
BITMAP
00E007
01C00E
01C01E
03C01E
03C01C
03803C
03803C
078038
070038
070078
070070
0F0070
0E0070
0E00E0
0E00E0
1FFFFC
3FFFFC
3DE1F8
1C31C0
1C19C0
381DC0
380D80
380F80
380780
780780
780700
700700
700700
F00700
F00700
F00F00
F00F00
C00000
ENDCHAR
STARTCHAR I
ENCODING 73
SWIDTH 537 0
DWIDTH 19 0
BBX 22 33 -3 -7
BITMAP
0001F0
0003F0
0007B8
000F38
001E30
001C30
001C70
003C70
003C70
003870
003870
0038F0
0038E0
0038E0
0018E0
001DE0
0009C0
0001C0
0003F0
01FFFC
07FF80
1F8380
3C0700
780700
700700
F00E00
F00E00
701C00
781C00
3C3800
1F7000
0FE000
018000
ENDCHAR
STARTCHAR J
ENCODING 74
SWIDTH 500 0
DWIDTH 18 0
BBX 24 33 -3 -7
BITMAP
001FFF
001FFF
001C73
000070
0000F0
0000E0
0000E0
0000E0
0001E0
0001C0
0001C0
0001C0
0003C0
0003C0
000380
000380
030780
078780
0F8700
1F8700
3C0F00
380F00
700E00
701E00
E01E00
E01C00
E03C00
E03800
E07000
E07000
70E000
3FC000
1F0000
ENDCHAR
STARTCHAR K
ENCODING 75
SWIDTH 497 0
DWIDTH 18 0
BBX 21 36 -2 -10
BITMAP
00F038
00E038
00E038
01E038
01C078
01C078
03C0F0
0380F0
0381E0
0381C0
0703C0
070780
070F00
071E00
0E3C00
0E7000
0FE000
0FF800
1FFE00
1C1E00
1C0F00
1C0F00
3C0F00
380E00
380E00
381E00
381C00
781C00
783C00
783800
783800
F03800
003C00
001E00
000FE0
0007C0
ENDCHAR
STARTCHAR L
ENCODING 76
SWIDTH 492 0
DWIDTH 18 0
BBX 23 33 -4 -7
BITMAP
00007E
0000FE
0001FE
0001CE
0003CE
00038E
00039C
0007BC
000778
0007F0
0007E0
061FC0
07FF00
03FE00
000E00
000E00
001C00
001C00
001C00
001C00
003800
003800
003800
007000
007000
00E000
1FE000
7FC000
7BF008
E7F830
7E3FF0
381FF0
0007E0
ENDCHAR
STARTCHAR M
ENCODING 77
SWIDTH 733 0
DWIDTH 26 0
BBX 30 33 -4 -7
BITMAP
0003803C
0007807C
0007807C
000F80FC
000D80FC
001D81D8
001D81D8
001983B8
003983B8
003B8738
003B8730
00738670
00738E70
00738C70
00F39C60
00F398E0
00E3B8E0
08E338E0
18E3B0E0
31E3F1C0
31C3E1C0
71C3E1C0
61C3E1C0
61C3C3C0
6383C3C0
E383C380
E381C380
E7800380
670003C0
7F0003C0
7F0003C0
3E0003F0
080000C0
ENDCHAR
STARTCHAR N
ENCODING 78
SWIDTH 541 0
DWIDTH 19 0
BBX 24 33 -1 -6
BITMAP
000004
01803E
03C03F
03C07B
07C073
07C0E3
07C0E6
07C0E6
0FC1CC
0EC1DC
0CC5F8
0CC7E0
1CC1C0
1CC380
1CC380
18C380
38C380
38C380
38C380
38C300
70C700
70E700
70E700
70E700
F0EE00
F06E00
F06E00
F07E00
F07C00
F07C00
F03C00
F03C00
F03800
ENDCHAR
STARTCHAR O
ENCODING 79
SWIDTH 567 0
DWIDTH 20 0
BBX 19 34 0 -7
BITMAP
003800
007F00
00FF80
01F180
03E1C0
0781C0
0701C0
0F01C0
0E01C0
1E01E0
1C01E0
1C01E0
3C01E0
3801E0
3801C0
7801C0
7001C0
7001C0
7001C0
7003C0
F003C0
F00380
F00380
F00780
F00700
F00700
700E00
700E00
701C00
703800
387800
3CF000
1FC000
070000
ENDCHAR
STARTCHAR P
ENCODING 80
SWIDTH 552 0
DWIDTH 20 0
BBX 22 33 -2 -6
BITMAP
000100
007FF0
01F0F8
07E038
0FE03C
0EE01C
0CE01C
00C01C
00C01C
01C01C
01C01C
01C03C
018038
038078
0380F0
0380E0
0301C0
070780
071F00
07FC00
0FF000
0F0000
0E0000
0E0000
1E0000
1E0000
1C0000
1C0000
3C0000
3C0000
780000
780000
F00000
ENDCHAR
STARTCHAR Q
ENCODING 81
SWIDTH 583 0
DWIDTH 21 0
BBX 19 34 1 -7
BITMAP
000800
00FF00
01FF80
03C380
0781C0
0F01C0
1E01C0
1E00C0
3C00E0
3C00E0
7800E0
7800E0
7001E0
7001C0
F001C0
F001C0
F001C0
E003C0
E00380
E00380
F00780
700700
700F00
3E0E00
1C1E00
001C00
0F3C00
3FF800
79F000
70F800
E3FC00
FF9E00
7F07E0
1801C0
ENDCHAR
STARTCHAR R
ENCODING 82
SWIDTH 560 0
DWIDTH 20 0
BBX 22 36 -1 -9
BITMAP
000300
007FE0
03F1F0
07E078
1FC038
1CC038
09C03C
01C03C
01C03C
01803C
038038
038078
038078
0300F0
0700E0
0701E0
0703C0
1FCF80
1EFE00
1FFC00
1FF800
0E1800
1E1C00
1E1C00
1C1C00
1C1C00
3C1C00
3C0E00
380E00
780E00
780E00
F00E00
F00F10
000FE0
0007C0
000300
ENDCHAR
STARTCHAR S
ENCODING 83
SWIDTH 474 0
DWIDTH 17 0
BBX 20 34 -2 -7
BITMAP
000F00
007FC0
00F8E0
01E0E0
03C070
078070
070070
0700F0
0700E0
0700E0
0701C0
078000
078000
03C000
01E000
01F000
00F800
007C00
003C00
001C00
001E00
001E00
000E00
000E00
180E00
700E00
F00C00
F01C00
F01C00
783800
787000
3FF000
3FE000
0F0000
ENDCHAR
STARTCHAR T
ENCODING 84
SWIDTH 423 0
DWIDTH 15 0
BBX 18 32 1 -6
BITMAP
3FFFC0
FFFFC0
FFE7C0
E0E000
01E000
01E000
01C000
01C000
03C000
038000
038000
038000
038000
070000
070000
070000
070000
0E0000
0E0000
0E0000
0E0000
1E0000
1C0000
1C0000
1C0000
3C0000
3C0000
3C0000
380000
780000
780000
780000
ENDCHAR
STARTCHAR U
ENCODING 85
SWIDTH 574 0
DWIDTH 21 0
BBX 22 33 0 -7
BITMAP
00C03C
03C03C
07C078
078078
078078
070070
0F00F0
0F00F0
0E00E0
1E00E0
1E01E0
1C01E0
1C01C0
3C01C0
3C03C0
380380
380380
380380
780780
700700
700700
700700
700F00
700F00
F00F00
F01F00
F01E00
F03600
707600
78E700
7FC700
3F8700
060000
ENDCHAR
STARTCHAR V
ENCODING 86
SWIDTH 503 0
DWIDTH 18 0
BBX 19 33 2 -7
BITMAP
1C0180
3C03C0
3803E0
780380
780780
700700
700F00
700E00
F00E00
E01E00
E01C00
E01C00
E03C00
E03800
E03800
E07800
E07000
E07000
E0F000
E0E000
E0E000
E0E000
E1C000
E1C000
E18000
E38000
630000
630000
670000
7E0000
3C0000
3C0000
180000
ENDCHAR
STARTCHAR W
ENCODING 87
SWIDTH 817 0
DWIDTH 29 0
BBX 28 34 1 -7
BITMAP
00000020
03C000F0
078080F0
0F0180F0
0E0380F0
0E0780F0
1E0780F0
1C0780F0
1C0780E0
380F00E0
380F00E0
380F00E0
780F00E0
700E00E0
700E01C0
700E01C0
700E01C0
E01E01C0
E01C0380
E01C0380
E03C0380
E03C0700
E03C0700
E07C0700
E06C0E00
E0EC0E00
E0CC0C00
E1CC1C00
E18E3800
638E3800
7F0F7000
7E07E000
3E07C000
18038000
ENDCHAR
STARTCHAR X
ENCODING 88
SWIDTH 579 0
DWIDTH 21 0
BBX 27 34 -2 -7
BITMAP
01800000
07E003C0
0EE007E0
0C700F80
0C701F00
1C701E00
1C303C00
1C387800
0F787000
0FF8E000
07B9E000
0139C000
001B8000
001F8000
001F0000
001E0000
001E0000
001C0000
003C0000
007C0000
007C0000
00FC0000
01EC0000
01CC0000
038E0000
078E0000
070E0000
0F0E0000
1E070200
1C070200
3C070C00
F803F800
7003F000
0000C000
ENDCHAR
STARTCHAR Y
ENCODING 89
SWIDTH 532 0
DWIDTH 19 0
BBX 21 33 0 -7
BITMAP
078078
0780F0
0700F0
0F00F0
0F00E0
0E00E0
1E01E0
1E01C0
1C01C0
1C01C0
3C03C0
380380
380380
380780
380780
780700
700F00
701F00
701F00
783600
78E600
3FCE00
1F8E00
000C00
001C00
001C00
003800
203800
707000
FFE000
FFC000
7F8000
180000
ENDCHAR
STARTCHAR Z
ENCODING 90
SWIDTH 455 0
DWIDTH 16 0
BBX 21 32 -3 -6
BITMAP
01FFF0
03FFF8
03FFF8
030078
000078
000070
0000F0
0001E0
0001E0
0003C0
000780
000F00
000F00
001E00
003C00
007800
00F000
00E000
01E000
03C000
078000
070000
0E0000
1E0000
1C0000
380000
780000
700000
E3FF80
FFFF00
FFFF00
7C7E00
ENDCHAR
STARTCHAR bracketleft
ENCODING 91
SWIDTH 202 0
DWIDTH 7 0
BBX 13 34 -2 -4
BITMAP
0078
00F8
00F0
01C0
0180
0180
0380
0380
0300
0300
0700
0600
0600
0E00
0E00
0C00
0C00
1C00
1C00
1800
1800
1800
3800
3800
3000
3000
7000
7000
7000
6000
6000
F000
FC00
7800
ENDCHAR
STARTCHAR backslash
ENCODING 92
SWIDTH 273 0
DWIDTH 10 0
BBX 7 27 1 -1
BITMAP
E0
60
60
70
70
70
70
70
30
30
30
30
38
38
38
18
18
1C
1C
1C
1C
0C
0E
0E
0E
0E
04
ENDCHAR
STARTCHAR bracketright
ENCODING 93
SWIDTH 216 0
DWIDTH 8 0
BBX 13 34 -4 -4
BITMAP
00F8
00F8
0078
0038
0030
0030
0030
0070
0070
0060
0060
0060
00E0
00C0
00C0
00C0
01C0
01C0
0180
0180
0380
0380
0300
0300
0700
0700
0600
0E00
0E00
0C00
1C00
7C00
7800
F800
ENDCHAR
STARTCHAR asciicircum
ENCODING 94
SWIDTH 287 0
DWIDTH 10 0
BBX 12 13 -1 13
BITMAP
01E0
01E0
03E0
0760
0760
0E60
0C70
1C70
1870
3870
7070
6070
E030
ENDCHAR
STARTCHAR underscore
ENCODING 95
SWIDTH 439 0
DWIDTH 16 0
BBX 18 3 -4 0
BITMAP
0FFC00
FFFFC0
FFFFC0
ENDCHAR
STARTCHAR grave
ENCODING 96
SWIDTH 567 0
DWIDTH 20 0
BBX 6 5 9 20
BITMAP
40
F0
F8
3C
0C
ENDCHAR
STARTCHAR a
ENCODING 97
SWIDTH 435 0
DWIDTH 16 0
BBX 20 16 -1 -1
BITMAP
00C000
03E000
076000
0E7000
1CB000
383000
387010
707020
707060
7060C0
70E180
F1E100
F36300
7F7E00
7C7C00
200000
ENDCHAR
STARTCHAR b
ENCODING 98
SWIDTH 415 0
DWIDTH 15 0
BBX 19 26 0 -1
BITMAP
038000
078000
078000
0F0000
0F0000
0F0000
1F0000
1E0000
3E0000
3E0000
3C0000
3C0000
7C6000
78E060
79F7C0
70FF00
707000
606000
60E000
E0E000
60C000
61C000
638000
7F0000
3E0000
180000
ENDCHAR
STARTCHAR c
ENCODING 99
SWIDTH 363 0
DWIDTH 13 0
BBX 16 16 0 -1
BITMAP
0780
0FC0
1CC0
39C0
71C0
7180
E001
E003
E006
C00C
C018
E030
E060
71C0
7F80
1E00
ENDCHAR
STARTCHAR d
ENCODING 100
SWIDTH 483 0
DWIDTH 17 0
BBX 20 26 0 -1
BITMAP
000380
000780
000780
000780
000780
000F80
000F00
000F00
001F00
001F00
001E00
079E00
1CDC00
38FC00
307800
707800
603010
E07030
C06020
C0E060
C0E0C0
C1E180
E7E300
FEFE00
787C00
003000
ENDCHAR
STARTCHAR e
ENCODING 101
SWIDTH 372 0
DWIDTH 13 0
BBX 16 16 0 -1
BITMAP
0380
07C0
1DC0
18C0
31C0
7180
6301
EE03
FC02
F006
E00C
E038
E070
79C0
7F80
1E00
ENDCHAR
STARTCHAR f
ENCODING 102
SWIDTH 325 0
DWIDTH 12 0
BBX 18 42 -3 -17
BITMAP
00F000
00F000
00F000
00F000
00F000
00E000
00E000
00E000
01C000
01C000
01C000
018000
038000
038000
0301C0
037F80
07F000
0F8000
1E0000
1E0000
1C0000
0E0000
1F0000
1F8000
19C000
18E000
386000
386000
307000
307000
707000
707000
706000
60E000
E0E000
E1C000
E3C000
C78000
FF0000
FE0000
FC0000
700000
ENDCHAR
STARTCHAR g
ENCODING 103
SWIDTH 459 0
DWIDTH 17 0
BBX 20 33 -1 -18
BITMAP
008000
07C400
0EEE00
1C6C00
183C00
383C00
303800
701810
703820
703860
7070C0
707380
70F700
3FFC00
3F7800
08F000
01E000
03E000
07E000
0EC000
1CC000
39C000
71C000
61C000
618000
E38000
E38000
638000
670000
7F0000
3E0000
3E0000
0C0000
ENDCHAR
STARTCHAR h
ENCODING 104
SWIDTH 465 0
DWIDTH 17 0
BBX 19 26 0 -1
BITMAP
030000
0F0000
070000
0F0000
0F0000
0E0000
0E0000
0E0000
1C0000
1C0000
1C0000
1CF000
39F800
3BF800
3E3800
3C3800
387000
707020
707060
70E0C0
60E180
E0C300
E0CE00
E0FC00
E0F000
406000
ENDCHAR
STARTCHAR i
ENCODING 105
SWIDTH 274 0
DWIDTH 10 0
BBX 12 23 1 0
BITMAP
0600
0E00
1E00
0C00
0000
0000
0000
0000
0000
3800
7800
7000
7000
F000
E010
E020
E060
C0C0
C180
C300
C600
FC00
7800
ENDCHAR
STARTCHAR j
ENCODING 106
SWIDTH 267 0
DWIDTH 10 0
BBX 21 40 -8 -16
BITMAP
000100
000300
000700
000700
000600
000000
000000
000000
000000
000000
001800
001C00
003C00
003800
003800
003808
007010
007030
007060
0071C0
00E380
00E700
00EC00
00F800
00F000
01C000
03C000
07C000
0FC000
1D8000
3B8000
338000
738000
630000
E70000
E70000
660000
6E0000
7C0000
3C0000
ENDCHAR
STARTCHAR k
ENCODING 107
SWIDTH 440 0
DWIDTH 16 0
BBX 19 26 -1 -1
BITMAP
038000
078000
078000
078000
070000
070000
070000
060000
0E0000
0E0000
0C0000
0C7800
1DF800
1BB800
1B1800
1E3800
3C7000
3BC020
37E060
33E0C0
706080
60E180
60C300
60FE00
E0FC00
407000
ENDCHAR
STARTCHAR l
ENCODING 108
SWIDTH 218 0
DWIDTH 8 0
BBX 9 26 -1 -1
BITMAP
0180
0780
0780
0780
0780
0700
0700
0F00
0E00
0E00
0E00
0E00
1C00
1C00
1C00
1C00
3800
3800
3800
3800
7000
7000
7000
7000
E000
6000
ENDCHAR
STARTCHAR m
ENCODING 109
SWIDTH 717 0
DWIDTH 26 0
BBX 29 15 0 -1
BITMAP
00303000
3CF8F800
3DF9F800
3B3B3800
3E3E3800
3C3C3808
78387810
78387030
70707060
70707040
F06070C0
E060F180
E0E0F700
E0E07E00
80003800
ENDCHAR
STARTCHAR n
ENCODING 110
SWIDTH 461 0
DWIDTH 17 0
BBX 20 15 -1 -1
BITMAP
047000
1EF800
1DF800
1F3C00
1E3800
3C3810
383810
383820
387060
3070C0
707180
707380
707700
E07C00
C03800
ENDCHAR
STARTCHAR o
ENCODING 111
SWIDTH 393 0
DWIDTH 14 0
BBX 18 15 0 -1
BITMAP
0F0000
3FC000
38C040
70E0C0
70E380
F8E600
F8FC00
DFF000
CFC000
C1C000
C1C000
E38000
F70000
7E0000
380000
ENDCHAR
STARTCHAR p
ENCODING 112
SWIDTH 451 0
DWIDTH 16 0
BBX 23 29 -4 -15
BITMAP
018700
03DF00
03BF80
03E380
03C380
038382
070306
070704
070708
060E18
079E30
0FFCE0
0FFFC0
0DFF80
1DE400
1C0000
1C0000
1C0000
380000
380000
380000
380000
700000
700000
700000
700000
F00000
F00000
600000
ENDCHAR
STARTCHAR q
ENCODING 113
SWIDTH 462 0
DWIDTH 17 0
BBX 18 30 0 -16
BITMAP
078C00
0FDC00
18DC00
387800
707800
703800
E03000
E07000
E07000
E07040
E0E080
E1E180
E1E300
7EE600
3CCC00
00D800
01F000
01E000
01C000
018000
038000
038000
078000
070000
0F0000
0F0000
0F0000
070000
070000
030000
ENDCHAR
STARTCHAR r
ENCODING 114
SWIDTH 406 0
DWIDTH 15 0
BBX 20 18 -3 -1
BITMAP
018000
03C000
03C000
07C000
078000
07F800
07FC00
061C00
0E1C10
0C3810
1C3830
187060
3060C0
30E180
60E380
40E700
C0FC00
007800
ENDCHAR
STARTCHAR s
ENCODING 115
SWIDTH 351 0
DWIDTH 13 0
BBX 10 17 0 -1
BITMAP
0300
0F00
1F00
1E00
1E00
1E00
3700
2700
6380
C380
01C0
01C0
31C0
7180
7980
3F00
1E00
ENDCHAR
STARTCHAR t
ENCODING 116
SWIDTH 301 0
DWIDTH 11 0
BBX 18 26 -3 -1
BITMAP
007000
00F000
00F000
00F000
01E000
67FF80
FFFFC0
3FE040
03C000
03C000
03C000
038000
038000
078000
070000
070000
060080
060100
0E0300
0C0600
0C0C00
0C1800
0C3800
0FF000
07E000
018000
ENDCHAR
STARTCHAR u
ENCODING 117
SWIDTH 468 0
DWIDTH 17 0
BBX 20 15 0 -1
BITMAP
0C1800
383800
383800
707800
707000
707010
E0F020
E0F060
E0E0C0
E0E080
E0E180
E1E700
FF7E00
7E7C00
080000
ENDCHAR
STARTCHAR v
ENCODING 118
SWIDTH 427 0
DWIDTH 15 0
BBX 19 15 0 -1
BITMAP
301800
703800
707800
707800
F07060
E0F0C0
E07F80
E0FC00
E1C000
618000
630000
770000
7E0000
3C0000
180000
ENDCHAR
STARTCHAR w
ENCODING 119
SWIDTH 646 0
DWIDTH 23 0
BBX 27 15 0 -1
BITMAP
18383000
38787000
7870F000
7070F000
70F0E060
70E0E0C0
70E0FF00
E0C0FC00
E0C1C000
E0C1C000
E1C18000
E3638000
76770000
7C3E0000
38080000
ENDCHAR
STARTCHAR x
ENCODING 120
SWIDTH 399 0
DWIDTH 14 0
BBX 18 16 -2 -1
BITMAP
080000
1C0E00
0E1E00
0E3C00
0E7800
07F000
07E000
03C000
038000
078040
0F8080
1D8300
39C700
70FE00
E0F800
406000
ENDCHAR
STARTCHAR y
ENCODING 121
SWIDTH 406 0
DWIDTH 15 0
BBX 14 29 -1 -15
BITMAP
181C
3C3C
3C1C
381C
3838
3838
7038
7070
7070
60F0
E1F0
E3E0
7F60
7EE0
3CE0
00C0
00C0
01C0
01C0
01C0
0180
0380
0380
0380
0700
0700
0700
0700
0700
ENDCHAR
STARTCHAR z
ENCODING 122
SWIDTH 448 0
DWIDTH 16 0
BBX 20 30 -1 -16
BITMAP
03FE00
07FE00
070C00
041C00
001800
003800
003000
007030
00E020
01C040
03F8C0
07DB00
071E00
021C00
007800
01D800
073800
0E3800
1C7000
387000
706000
70E000
E0E000
E1C000
C3C000
C38000
E70000
FF0000
7E0000
180000
ENDCHAR
STARTCHAR braceleft
ENCODING 123
SWIDTH 243 0
DWIDTH 9 0
BBX 13 34 -1 -4
BITMAP
0038
00F0
01F0
03F0
0380
0300
0300
0700
0300
0300
0300
0300
0300
0700
0600
3C00
3800
3800
1C00
0C00
0C00
1C00
1800
3800
3000
7000
6000
6000
E000
F000
F800
7C00
3800
1800
ENDCHAR
STARTCHAR bar
ENCODING 124
SWIDTH 253 0
DWIDTH 9 0
BBX 9 27 0 -1
BITMAP
0380
0380
0300
0700
0700
0700
0600
0E00
0E00
0C00
0C00
1C00
1C00
1800
1800
3800
3800
3800
3000
3000
7000
7000
7000
7000
E000
E000
4000
ENDCHAR
STARTCHAR braceright
ENCODING 125
SWIDTH 243 0
DWIDTH 9 0
BBX 13 34 -4 -4
BITMAP
00C0
00E0
00F0
00F8
0078
0038
0038
0038
0030
0070
0060
00E0
00C0
01C0
01C0
00C0
00C0
0060
01E0
0380
0300
0300
0700
0700
0700
0700
0700
0700
0700
0700
1E00
7E00
7C00
F000
ENDCHAR
STARTCHAR asciitilde
ENCODING 126
SWIDTH 329 0
DWIDTH 12 0
BBX 14 4 -1 11
BITMAP
1808
7F9C
FFF8
C1F0
ENDCHAR
STARTCHAR uni00A0
ENCODING 160
SWIDTH 280 0
DWIDTH 10 0
BBX 1 1 0 0
BITMAP
00
ENDCHAR
STARTCHAR exclamdown
ENCODING 161
SWIDTH 249 0
DWIDTH 9 0
BBX 11 27 -1 -1
BITMAP
01E0
03C0
0380
0000
0000
0180
0380
0700
0700
0700
0700
0E00
0E00
0E00
0E00
1C00
1C00
1C00
3C00
3C00
3800
3800
7800
7800
7000
7000
E000
ENDCHAR
STARTCHAR cent
ENCODING 162
SWIDTH 322 0
DWIDTH 12 0
BBX 12 26 0 0
BITMAP
00C0
00C0
00C0
01C0
07E0
0E30
1C30
18F0
38F0
70F0
70E0
6040
E000
E000
C000
C000
C000
C000
C040
E080
6100
7E00
1C00
1800
1800
3000
ENDCHAR
STARTCHAR sterling
ENCODING 163
SWIDTH 318 0
DWIDTH 11 0
BBX 15 22 -2 2
BITMAP
00FC
01CC
0386
0306
030E
067C
0638
0600
0600
0E00
0C00
3FC0
3FC0
1C00
1800
1800
3800
3000
3000
67E0
FFE0
7820
ENDCHAR
STARTCHAR currency
ENCODING 164
SWIDTH 347 0
DWIDTH 13 0
BBX 13 12 0 7
BITMAP
3018
3938
1FF0
1EE0
18C0
18C0
10C0
3180
3F80
7FC0
E0E0
8060
ENDCHAR
STARTCHAR yen
ENCODING 165
SWIDTH 326 0
DWIDTH 12 0
BBX 14 22 0 2
BITMAP
0804
381C
3818
1838
1830
1870
1860
1CC0
0D80
0F80
0700
0E00
0E00
7F80
6D80
0C00
FF00
FF00
1800
3800
3800
3000
ENDCHAR
STARTCHAR brokenbar
ENCODING 166
SWIDTH 253 0
DWIDTH 9 0
BBX 9 27 0 -1
BITMAP
0380
0380
0300
0700
0700
0700
0600
0E00
0E00
0C00
0C00
0000
0000
0000
1800
3800
3800
3800
3000
7000
7000
7000
7000
7000
E000
E000
4000
ENDCHAR
STARTCHAR section
ENCODING 167
SWIDTH 297 0
DWIDTH 11 0
BBX 14 28 -1 -1
BITMAP
0060
0398
0718
0E1C
0C18
0C38
0C30
0E00
0600
0380
03C0
1EC0
3860
3060
7060
70E0
70C0
3B80
1E00
0E00
0700
0380
7180
E180
C180
C380
6700
3C00
ENDCHAR
STARTCHAR dieresis
ENCODING 168
SWIDTH 567 0
DWIDTH 20 0
BBX 9 3 8 21
BITMAP
6100
F780
E780
ENDCHAR
STARTCHAR copyright
ENCODING 169
SWIDTH 456 0
DWIDTH 16 0
BBX 17 18 1 8
BITMAP
03F800
0F1C00
1C0600
386300
31F300
639300
E73180
C62180
CE0180
CC0380
CC1300
CC2300
C66700
C7C600
610C00
701800
1EF000
0FC000
ENDCHAR
STARTCHAR ordfeminine
ENCODING 170
SWIDTH 373 0
DWIDTH 13 0
BBX 17 18 -2 -1
BITMAP
01E000
03E000
066000
0CB000
1C3000
187000
386000
306000
30E180
70E100
7BE600
3F6C00
3C7800
000000
000000
7FF000
FFF000
F00000
ENDCHAR
STARTCHAR guillemotleft
ENCODING 171
SWIDTH 346 0
DWIDTH 12 0
BBX 13 15 -1 -1
BITMAP
0318
0630
0C60
18E0
39C0
7380
E700
E700
E700
6380
7180
3180
18C0
18C0
0C60
ENDCHAR
STARTCHAR logicalnot
ENCODING 172
SWIDTH 512 0
DWIDTH 18 0
BBX 18 8 0 6
BITMAP
7FFFC0
FFFFC0
C00180
000180
000180
000380
000300
000700
ENDCHAR
STARTCHAR sfthyphen
ENCODING 173
SWIDTH 353 0
DWIDTH 13 0
BBX 13 4 -1 9
BITMAP
07E0
7FF8
7FF8
8000
ENDCHAR
STARTCHAR registered
ENCODING 174
SWIDTH 456 0
DWIDTH 16 0
BBX 17 18 1 8
BITMAP
03F800
0F1C00
1C0600
39E300
373300
633300
E33180
C33180
C76180
C7C380
C6C300
C6C300
C64700
CC7600
602C00
701800
1EF000
0FC000
ENDCHAR
STARTCHAR macron
ENCODING 175
SWIDTH 567 0
DWIDTH 20 0
BBX 9 3 8 21
BITMAP
0E00
FF80
FF00
ENDCHAR
STARTCHAR degree
ENCODING 176
SWIDTH 144 0
DWIDTH 5 0
BBX 5 4 2 20
BITMAP
78
D8
D8
70
ENDCHAR
STARTCHAR twosuperior
ENCODING 178
SWIDTH 268 0
DWIDTH 10 0
BBX 11 18 0 9
BITMAP
01C0
07E0
0CE0
1CE0
18E0
1CE0
00C0
01C0
0380
0300
0600
1C00
3800
7000
6F00
FF80
7F80
0080
ENDCHAR
STARTCHAR threesuperior
ENCODING 179
SWIDTH 262 0
DWIDTH 9 0
BBX 10 17 1 10
BITMAP
0300
1F80
39C0
30C0
31C0
3980
0380
0700
0E00
1F00
1380
0380
0380
E300
C700
FE00
7C00
ENDCHAR
STARTCHAR acute
ENCODING 180
SWIDTH 567 0
DWIDTH 20 0
BBX 6 5 9 20
BITMAP
04
0C
3C
78
E0
ENDCHAR
STARTCHAR mu
ENCODING 181
SWIDTH 453 0
DWIDTH 16 0
BBX 21 20 -5 -7
BITMAP
018300
038700
070700
070F00
070F00
060E00
0E0E08
0E0C08
0E0C18
0E1C10
1E3C20
1FF7E0
1FE7C0
180000
380000
380000
380000
700000
700000
E00000
ENDCHAR
STARTCHAR paragraph
ENCODING 182
SWIDTH 411 0
DWIDTH 15 0
BBX 17 27 1 -1
BITMAP
006600
07FF80
1FFF00
3FFE00
7FCC00
7FCC00
FFCC00
FFDC00
FF9800
FF9800
7F9800
7F9800
1F3000
033000
033000
073000
063000
066000
066000
0E6000
0E6000
0CC000
0CC000
1CC000
1CC000
198000
320000
ENDCHAR
STARTCHAR periodcentered
ENCODING 183
SWIDTH 168 0
DWIDTH 6 0
BBX 5 4 0 10
BITMAP
38
78
F8
60
ENDCHAR
STARTCHAR cedilla
ENCODING 184
SWIDTH 567 0
DWIDTH 20 0
BBX 7 8 9 -5
BITMAP
30
60
78
7C
0E
0C
38
E0
ENDCHAR
STARTCHAR onesuperior
ENCODING 185
SWIDTH 150 0
DWIDTH 5 0
BBX 6 17 1 10
BITMAP
08
1C
3C
38
18
18
38
30
30
30
30
60
60
60
E0
E0
E0
ENDCHAR
STARTCHAR ordmasculine
ENCODING 186
SWIDTH 319 0
DWIDTH 12 0
BBX 16 18 -2 -1
BITMAP
0380
0FC0
0C60
1C63
3C66
3C6C
3E78
37E0
31E0
30C0
31C0
3B80
1F00
0000
0000
7FC0
FFC0
E000
ENDCHAR
STARTCHAR guillemotright
ENCODING 187
SWIDTH 346 0
DWIDTH 12 0
BBX 14 15 -3 -1
BITMAP
18C0
18E0
0C60
0E70
0630
0738
031C
039C
0738
0E70
1C60
18C0
3180
6300
C200
ENDCHAR
STARTCHAR onequarter
ENCODING 188
SWIDTH 579 0
DWIDTH 21 0
BBX 21 28 -1 -1
BITMAP
020008
070030
0F0070
0600E0
0601C0
060180
060380
0C0700
0C0600
0C0E00
0C1C00
181870
1830F0
1870F0
3861B0
38C3E0
39C760
038E60
031C60
071FF0
0E1FF0
0E10D0
1C00C0
3801C0
3801C0
7001C0
F001C0
800080
ENDCHAR
STARTCHAR onehalf
ENCODING 189
SWIDTH 603 0
DWIDTH 22 0
BBX 21 28 0 -1
BITMAP
040000
0E0070
1E00E0
0E01C0
0C0180
0C0380
0C0700
0C0600
180C00
181C00
183800
1831F0
3073B8
30E738
30C638
71C738
338030
030070
070060
0E00C0
0C01C0
1C0380
380700
380C00
701800
E03FE0
E01FE0
801020
ENDCHAR
STARTCHAR threequarters
ENCODING 190
SWIDTH 669 0
DWIDTH 24 0
BBX 22 28 1 -1
BITMAP
030000
1F801C
39C038
30C070
31C060
3980E0
0381C0
070180
0E0380
1F0700
138600
038C1C
039C38
E31878
C730F8
FE71D8
7CE3B0
00C730
01CE30
038FF8
030FF8
070478
0E0060
0E0060
1C00E0
3800E0
3800E0
200040
ENDCHAR
STARTCHAR questiondown
ENCODING 191
SWIDTH 413 0
DWIDTH 15 0
BBX 17 28 -2 -1
BITMAP
000300
000780
000F80
000700
000000
000100
000600
000E00
000E00
001E00
001C00
001C00
003C00
01F800
07E000
0F0000
1E0000
3C0000
380000
700000
700800
E01E00
E00E00
E01E00
F01C00
787800
3FF000
1FC000
ENDCHAR
STARTCHAR Agrave
ENCODING 192
SWIDTH 552 0
DWIDTH 20 0
BBX 22 42 -4 -8
BITMAP
000040
0000F0
0000F8
00003C
00000C
000000
000000
000000
0000F8
0001FC
00039C
00071C
000E1C
001C1C
001C18
003818
003838
007038
007038
007038
00E030
00E070
01E070
01C070
01C070
03C070
03FFE4
0FFFF8
7FE3F0
6700E0
0700E0
0F00E0
0F01E0
0E01C0
1E01C0
1E01C0
3E01C0
3C01C0
7C01E0
7801E0
8001F0
0001E0
ENDCHAR
STARTCHAR Aacute
ENCODING 193
SWIDTH 552 0
DWIDTH 20 0
BBX 22 42 -4 -8
BITMAP
000004
00000C
00003C
000078
0000E0
000000
000000
000000
0000F8
0001FC
00039C
00071C
000E1C
001C1C
001C18
003818
003838
007038
007038
007038
00E030
00E070
01E070
01C070
01C070
03C070
03FFE4
0FFFF8
7FE3F0
6700E0
0700E0
0F00E0
0F01E0
0E01C0
1E01C0
1E01C0
3E01C0
3C01C0
7C01E0
7801E0
8001F0
0001E0
ENDCHAR
STARTCHAR Acircumflex
ENCODING 194
SWIDTH 552 0
DWIDTH 20 0
BBX 24 41 -4 -8
BITMAP
00001C
00003C
00006E
0001C6
000203
000000
000000
0000F8
0001FC
00039C
00071C
000E1C
001C1C
001C18
003818
003838
007038
007038
007038
00E030
00E070
01E070
01C070
01C070
03C070
03FFE4
0FFFF8
7FE3F0
6700E0
0700E0
0F00E0
0F01E0
0E01C0
1E01C0
1E01C0
3E01C0
3C01C0
7C01E0
7801E0
8001F0
0001E0
ENDCHAR
STARTCHAR Atilde
ENCODING 195
SWIDTH 552 0
DWIDTH 20 0
BBX 25 40 -4 -8
BITMAP
0000F080
0003FF80
00039F80
00000000
00000000
00000000
0000F800
0001FC00
00039C00
00071C00
000E1C00
001C1C00
001C1800
00381800
00383800
00703800
00703800
00703800
00E03000
00E07000
01E07000
01C07000
01C07000
03C07000
03FFE400
0FFFF800
7FE3F000
6700E000
0700E000
0F00E000
0F01E000
0E01C000
1E01C000
1E01C000
3E01C000
3C01C000
7C01E000
7801E000
8001F000
0001E000
ENDCHAR
STARTCHAR Adieresis
ENCODING 196
SWIDTH 552 0
DWIDTH 20 0
BBX 25 40 -4 -8
BITMAP
00006100
0000F780
0000E780
00000000
00000000
00000000
0000F800
0001FC00
00039C00
00071C00
000E1C00
001C1C00
001C1800
00381800
00383800
00703800
00703800
00703800
00E03000
00E07000
01E07000
01C07000
01C07000
03C07000
03FFE400
0FFFF800
7FE3F000
6700E000
0700E000
0F00E000
0F01E000
0E01C000
1E01C000
1E01C000
3E01C000
3C01C000
7C01E000
7801E000
8001F000
0001E000
ENDCHAR
STARTCHAR Aring
ENCODING 197
SWIDTH 552 0
DWIDTH 20 0
BBX 22 38 -4 -8
BITMAP
00003C
00006C
00006C
000038
0000F8
0001FC
00039C
00071C
000E1C
001C1C
001C18
003818
003838
007038
007038
007038
00E030
00E070
01E070
01C070
01C070
03C070
03FFE4
0FFFF8
7FE3F0
6700E0
0700E0
0F00E0
0F01E0
0E01C0
1E01C0
1E01C0
3E01C0
3C01C0
7C01E0
7801E0
8001F0
0001E0
ENDCHAR
STARTCHAR AE
ENCODING 198
SWIDTH 869 0
DWIDTH 31 0
BBX 36 35 -4 -8
BITMAP
0000000200
0000F83FC0
0001FCF8E0
00039DE070
00071FC070
000E1F8070
001C1F0070
001C1F00E0
00381E00E0
00383E01E0
00703E07C0
00703E0080
00703E0000
00E03F0000
00E07F0000
01E0778000
01C073F800
01C073F800
03C07F3000
03FFFC0000
0FFFF80000
7FE3F00000
6700F00000
0700E00000
0F00E00080
0F01E00180
0E01E00300
1E01E00300
1E01F00600
3E01F80C00
3C01FC3C00
7C01FFF800
7801FFE000
8001F10000
0001E00000
ENDCHAR
STARTCHAR Ccedilla
ENCODING 199
SWIDTH 548 0
DWIDTH 20 0
BBX 20 41 0 -14
BITMAP
000300
003FC0
0078E0
00F0E0
01E070
03C070
0780F0
0700F0
0F00F0
1E00F0
1E01E0
1C03E0
3C01C0
3C0000
780000
780000
780000
780000
F00000
F00000
F00000
F00000
F00000
F00000
F00000
F00100
F00100
700300
780600
780C00
3C3800
1FF000
0FE000
030000
060000
078000
07C000
00E000
00C000
038000
0E0000
ENDCHAR
STARTCHAR Egrave
ENCODING 200
SWIDTH 523 0
DWIDTH 19 0
BBX 20 41 -1 -7
BITMAP
000400
000F00
000F80
0003C0
0000C0
000000
000000
000100
001FE0
007870
01E070
03C030
038070
078070
0F0070
0F00F0
0F01E0
0F03C0
0F0080
0F0000
0F0000
078000
038000
01FC00
03FC00
0F3800
1E0000
3C0000
780000
700000
F00000
F00080
F00080
F00180
F00300
F00700
780E00
7E1C00
3FF800
0FF000
010000
ENDCHAR
STARTCHAR Eacute
ENCODING 201
SWIDTH 523 0
DWIDTH 19 0
BBX 20 41 -1 -7
BITMAP
000040
0000E0
0001E0
0007C0
000700
000000
000000
000100
001FE0
007870
01E070
03C030
038070
078070
0F0070
0F00F0
0F01E0
0F03C0
0F0080
0F0000
0F0000
078000
038000
01FC00
03FC00
0F3800
1E0000
3C0000
780000
700000
F00000
F00080
F00080
F00180
F00300
F00700
780E00
7E1C00
3FF800
0FF000
010000
ENDCHAR
STARTCHAR Ecircumflex
ENCODING 202
SWIDTH 523 0
DWIDTH 19 0
BBX 21 40 -1 -7
BITMAP
0000C0
0003E0
000760
000E70
001018
000000
000100
001FE0
007870
01E070
03C030
038070
078070
0F0070
0F00F0
0F01E0
0F03C0
0F0080
0F0000
0F0000
078000
038000
01FC00
03FC00
0F3800
1E0000
3C0000
780000
700000
F00000
F00080
F00080
F00180
F00300
F00700
780E00
7E1C00
3FF800
0FF000
010000
ENDCHAR
STARTCHAR Edieresis
ENCODING 203
SWIDTH 523 0
DWIDTH 19 0
BBX 21 39 -1 -7
BITMAP
000610
000E78
001E70
000000
000000
000100
001FE0
007870
01E070
03C030
038070
078070
0F0070
0F00F0
0F01E0
0F03C0
0F0080
0F0000
0F0000
078000
038000
01FC00
03FC00
0F3800
1E0000
3C0000
780000
700000
F00000
F00080
F00080
F00180
F00300
F00700
780E00
7E1C00
3FF800
0FF000
010000
ENDCHAR
STARTCHAR Igrave
ENCODING 204
SWIDTH 537 0
DWIDTH 19 0
BBX 22 41 -3 -7
BITMAP
000080
0001C0
0001F0
000078
000018
000000
000000
000000
0001F0
0003F0
0007B8
000F38
001E30
001C30
001C70
003C70
003C70
003870
003870
0038F0
0038E0
0038E0
0018E0
001DE0
0009C0
0001C0
0003F0
01FFFC
07FF80
1F8380
3C0700
780700
700700
F00E00
F00E00
701C00
781C00
3C3800
1F7000
0FE000
018000
ENDCHAR
STARTCHAR Iacute
ENCODING 205
SWIDTH 537 0
DWIDTH 19 0
BBX 22 41 -3 -7
BITMAP
000008
00001C
00003C
000078
0000E0
000000
000000
000000
0001F0
0003F0
0007B8
000F38
001E30
001C30
001C70
003C70
003C70
003870
003870
0038F0
0038E0
0038E0
0018E0
001DE0
0009C0
0001C0
0003F0
01FFFC
07FF80
1F8380
3C0700
780700
700700
F00E00
F00E00
701C00
781C00
3C3800
1F7000
0FE000
018000
ENDCHAR
STARTCHAR Icircumflex
ENCODING 206
SWIDTH 537 0
DWIDTH 19 0
BBX 24 40 -3 -7
BITMAP
00001C
00003C
00006E
0001C7
000201
000000
000000
0001F0
0003F0
0007B8
000F38
001E30
001C30
001C70
003C70
003C70
003870
003870
0038F0
0038E0
0038E0
0018E0
001DE0
0009C0
0001C0
0003F0
01FFFC
07FF80
1F8380
3C0700
780700
700700
F00E00
F00E00
701C00
781C00
3C3800
1F7000
0FE000
018000
ENDCHAR
STARTCHAR Idieresis
ENCODING 207
SWIDTH 537 0
DWIDTH 19 0
BBX 24 39 -3 -7
BITMAP
0000C2
0001EF
0001CF
000000
000000
000000
0001F0
0003F0
0007B8
000F38
001E30
001C30
001C70
003C70
003C70
003870
003870
0038F0
0038E0
0038E0
0018E0
001DE0
0009C0
0001C0
0003F0
01FFFC
07FF80
1F8380
3C0700
780700
700700
F00E00
F00E00
701C00
781C00
3C3800
1F7000
0FE000
018000
ENDCHAR
STARTCHAR Eth
ENCODING 208
SWIDTH 632 0
DWIDTH 23 0
BBX 23 33 -1 -7
BITMAP
01FF00
03FFC0
07C3E0
0700F0
040078
00E038
01E03C
01C03C
03C01C
03C01C
03C01C
03C01E
03801C
03801C
03801C
7FF83C
FFF03C
87003C
070038
0F0078
0E0078
0E00F0
0E00F0
1C01E0
1C01C0
1C03C0
3C0780
380F00
381E00
787C00
7FF000
3FE000
060000
ENDCHAR
STARTCHAR Ntilde
ENCODING 209
SWIDTH 541 0
DWIDTH 19 0
BBX 24 37 -1 -6
BITMAP
001C10
007FF0
0073E0
000000
000004
01803E
03C03F
03C07B
07C073
07C0E3
07C0E6
07C0E6
0FC1CC
0EC1DC
0CC5F8
0CC7E0
1CC1C0
1CC380
1CC380
18C380
38C380
38C380
38C380
38C300
70C700
70E700
70E700
70E700
F0EE00
F06E00
F06E00
F07E00
F07C00
F07C00
F03C00
F03C00
F03800
ENDCHAR
STARTCHAR Ograve
ENCODING 210
SWIDTH 567 0
DWIDTH 20 0
BBX 19 41 0 -7
BITMAP
000800
001E00
001F00
000780
000180
000000
000000
003800
007F00
00FF80
01F180
03E1C0
0781C0
0701C0
0F01C0
0E01C0
1E01E0
1C01E0
1C01E0
3C01E0
3801E0
3801C0
7801C0
7001C0
7001C0
7001C0
7003C0
F003C0
F00380
F00380
F00780
F00700
F00700
700E00
700E00
701C00
703800
387800
3CF000
1FC000
070000
ENDCHAR
STARTCHAR Oacute
ENCODING 211
SWIDTH 567 0
DWIDTH 20 0
BBX 19 41 0 -7
BITMAP
000080
000180
000780
000F00
001C00
000000
000000
003800
007F00
00FF80
01F180
03E1C0
0781C0
0701C0
0F01C0
0E01C0
1E01E0
1C01E0
1C01E0
3C01E0
3801E0
3801C0
7801C0
7001C0
7001C0
7001C0
7003C0
F003C0
F00380
F00380
F00780
F00700
F00700
700E00
700E00
701C00
703800
387800
3CF000
1FC000
070000
ENDCHAR
STARTCHAR Ocircumflex
ENCODING 212
SWIDTH 567 0
DWIDTH 20 0
BBX 19 40 0 -7
BITMAP
000300
000F80
001D80
0039C0
004060
000000
003800
007F00
00FF80
01F180
03E1C0
0781C0
0701C0
0F01C0
0E01C0
1E01E0
1C01E0
1C01E0
3C01E0
3801E0
3801C0
7801C0
7001C0
7001C0
7001C0
7003C0
F003C0
F00380
F00380
F00780
F00700
F00700
700E00
700E00
701C00
703800
387800
3CF000
1FC000
070000
ENDCHAR
STARTCHAR Otilde
ENCODING 213
SWIDTH 567 0
DWIDTH 20 0
BBX 19 39 0 -7
BITMAP
003820
00FFE0
00E7C0
000000
000000
003800
007F00
00FF80
01F180
03E1C0
0781C0
0701C0
0F01C0
0E01C0
1E01E0
1C01E0
1C01E0
3C01E0
3801E0
3801C0
7801C0
7001C0
7001C0
7001C0
7003C0
F003C0
F00380
F00380
F00780
F00700
F00700
700E00
700E00
701C00
703800
387800
3CF000
1FC000
070000
ENDCHAR
STARTCHAR Odieresis
ENCODING 214
SWIDTH 567 0
DWIDTH 20 0
BBX 19 39 0 -7
BITMAP
001840
0039E0
0079C0
000000
000000
003800
007F00
00FF80
01F180
03E1C0
0781C0
0701C0
0F01C0
0E01C0
1E01E0
1C01E0
1C01E0
3C01E0
3801E0
3801C0
7801C0
7001C0
7001C0
7001C0
7003C0
F003C0
F00380
F00380
F00780
F00700
F00700
700E00
700E00
701C00
703800
387800
3CF000
1FC000
070000
ENDCHAR
STARTCHAR multiply
ENCODING 215
SWIDTH 281 0
DWIDTH 10 0
BBX 13 13 -1 6
BITMAP
0800
3878
1C70
0CE0
0DC0
0F80
0F00
0E00
1E00
3F00
3300
6380
C180
ENDCHAR
STARTCHAR Oslash
ENCODING 216
SWIDTH 597 0
DWIDTH 22 0
BBX 23 35 -1 -8
BITMAP
000E1E
003FFC
007FF8
00F8F0
00E8F0
01C0E0
03C1F0
0381F0
0783F0
0703F0
0F0770
0E0770
0E0E70
1E1E70
1C1C70
1C3870
1C38F0
3C70F0
3C70E0
38E0E0
38E0E0
39C1E0
3BC1C0
3B81C0
3F83C0
3F0380
3F0780
3E0700
3E0F00
1C0E00
3C1C00
7E7800
7FF000
F3C000
400000
ENDCHAR
STARTCHAR Ugrave
ENCODING 217
SWIDTH 574 0
DWIDTH 21 0
BBX 22 40 0 -7
BITMAP
000800
001E00
001F00
000780
000180
000000
000000
00C03C
03C03C
07C078
078078
078078
070070
0F00F0
0F00F0
0E00E0
1E00E0
1E01E0
1C01E0
1C01C0
3C01C0
3C03C0
380380
380380
380380
780780
700700
700700
700700
700F00
700F00
F00F00
F01F00
F01E00
F03600
707600
78E700
7FC700
3F8700
060000
ENDCHAR
STARTCHAR Uacute
ENCODING 218
SWIDTH 574 0
DWIDTH 21 0
BBX 22 40 0 -7
BITMAP
000040
0000E0
0001E0
0003C0
000700
000000
000000
00C03C
03C03C
07C078
078078
078078
070070
0F00F0
0F00F0
0E00E0
1E00E0
1E01E0
1C01E0
1C01C0
3C01C0
3C03C0
380380
380380
380380
780780
700700
700700
700700
700F00
700F00
F00F00
F01F00
F01E00
F03600
707600
78E700
7FC700
3F8700
060000
ENDCHAR
STARTCHAR Ucircumflex
ENCODING 219
SWIDTH 574 0
DWIDTH 21 0
BBX 22 40 0 -7
BITMAP
000180
0007C0
000EC0
001CE0
002030
000000
000000
00C03C
03C03C
07C078
078078
078078
070070
0F00F0
0F00F0
0E00E0
1E00E0
1E01E0
1C01E0
1C01C0
3C01C0
3C03C0
380380
380380
380380
780780
700700
700700
700700
700F00
700F00
F00F00
F01F00
F01E00
F03600
707600
78E700
7FC700
3F8700
060000
ENDCHAR
STARTCHAR Udieresis
ENCODING 220
SWIDTH 574 0
DWIDTH 21 0
BBX 22 39 0 -7
BITMAP
000C40
003CF0
0038E0
000000
000000
000000
00C03C
03C03C
07C078
078078
078078
070070
0F00F0
0F00F0
0E00E0
1E00E0
1E01E0
1C01E0
1C01C0
3C01C0
3C03C0
380380
380380
380380
780780
700700
700700
700700
700F00
700F00
F00F00
F01F00
F01E00
F03600
707600
78E700
7FC700
3F8700
060000
ENDCHAR
STARTCHAR Yacute
ENCODING 221
SWIDTH 532 0
DWIDTH 19 0
BBX 21 40 0 -7
BITMAP
000080
0001C0
0007C0
000F00
001C00
000000
000000
078078
0780F0
0700F0
0F00F0
0F00E0
0E00E0
1E01E0
1E01C0
1C01C0
1C01C0
3C03C0
380380
380380
380780
380780
780700
700F00
701F00
701F00
783600
78E600
3FCE00
1F8E00
000C00
001C00
001C00
003800
203800
707000
FFE000
FFC000
7F8000
180000
ENDCHAR
STARTCHAR Thorn
ENCODING 222
SWIDTH 569 0
DWIDTH 21 0
BBX 20 32 -1 -6
BITMAP
00E000
01C000
03C000
03C000
038000
038000
03FF80
07FFC0
0F81E0
3F00F0
3F0070
3F0070
1E0070
0E0070
0E0070
1C0070
1C00F0
1C00E0
1C01E0
3C01C0
3803C0
380780
380F00
783C00
79F800
7FE000
780000
700000
F00000
F00000
F00000
F00000
ENDCHAR
STARTCHAR germandbls
ENCODING 223
SWIDTH 495 0
DWIDTH 18 0
BBX 20 41 -4 -17
BITMAP
000700
001FC0
003CC0
0078E0
0070E0
00E1C0
00E1C0
01C3C0
01C380
01C300
018700
038600
038700
030300
070380
070180
0601C0
0600E0
7E00E0
1E0070
0E0C70
1F9C70
1D9E60
18CFC0
18E780
386000
386000
307000
307000
707000
707000
706000
60E000
E0E000
E1C000
E3C000
E78000
FF0000
FE0000
FC0000
700000
ENDCHAR
STARTCHAR agrave
ENCODING 224
SWIDTH 435 0
DWIDTH 16 0
BBX 20 23 -1 -1
BITMAP
030000
038000
03C000
00F000
003000
000000
000000
00C000
03E000
076000
0E7000
1CB000
383000
387010
707020
707060
7060C0
70E180
F1E100
F36300
7F7E00
7C7C00
200000
ENDCHAR
STARTCHAR aacute
ENCODING 225
SWIDTH 435 0
DWIDTH 16 0
BBX 20 23 -1 -1
BITMAP
001000
003000
00F800
01E000
038000
000000
000000
00C000
03E000
076000
0E7000
1CB000
383000
387010
707020
707060
7060C0
70E180
F1E100
F36300
7F7E00
7C7C00
200000
ENDCHAR
STARTCHAR acircumflex
ENCODING 226
SWIDTH 435 0
DWIDTH 16 0
BBX 20 22 -1 -1
BITMAP
007000
00F000
03B800
071800
080C00
000000
00C000
03E000
076000
0E7000
1CB000
383000
387010
707020
707060
7060C0
70E180
F1E100
F36300
7F7E00
7C7C00
200000
ENDCHAR
STARTCHAR atilde
ENCODING 227
SWIDTH 435 0
DWIDTH 16 0
BBX 20 21 -1 -1
BITMAP
038200
0FFE00
0C7C00
000000
000000
00C000
03E000
076000
0E7000
1CB000
383000
387010
707020
707060
7060C0
70E180
F1E100
F36300
7F7E00
7C7C00
200000
ENDCHAR
STARTCHAR adieresis
ENCODING 228
SWIDTH 435 0
DWIDTH 16 0
BBX 20 21 -1 -1
BITMAP
018400
039E00
079C00
000000
000000
00C000
03E000
076000
0E7000
1CB000
383000
387010
707020
707060
7060C0
70E180
F1E100
F36300
7F7E00
7C7C00
200000
ENDCHAR
STARTCHAR aring
ENCODING 229
SWIDTH 435 0
DWIDTH 16 0
BBX 20 21 -1 -1
BITMAP
00E000
013000
012000
01E000
000000
00C000
03E000
076000
0E7000
1CB000
383000
387010
707020
707060
7060C0
70E180
F1E100
F36300
7F7E00
7C7C00
200000
ENDCHAR
STARTCHAR ae
ENCODING 230
SWIDTH 594 0
DWIDTH 21 0
BBX 25 16 -1 -1
BITMAP
00C1C000
03E3E000
076EE000
0E7C6000
1CB8E000
3878C000
38718080
70770180
707E0100
70780300
70F00600
F1F01C00
F3F03800
7F3CE000
7E3FC000
100F0000
ENDCHAR
STARTCHAR ccedilla
ENCODING 231
SWIDTH 363 0
DWIDTH 13 0
BBX 16 23 0 -8
BITMAP
0780
0FC0
1CC0
39C0
71C0
7180
E001
E003
E006
C00C
C018
E030
E060
71C0
7F80
1E00
1800
3800
3F00
0700
0700
0E00
3800
ENDCHAR
STARTCHAR egrave
ENCODING 232
SWIDTH 372 0
DWIDTH 13 0
BBX 16 23 0 -1
BITMAP
0400
0F00
0F80
03C0
00C0
0000
0000
0380
07C0
1DC0
18C0
31C0
7180
6301
EE03
FC02
F006
E00C
E038
E070
79C0
7F80
1E00
ENDCHAR
STARTCHAR eacute
ENCODING 233
SWIDTH 372 0
DWIDTH 13 0
BBX 16 23 0 -1
BITMAP
0020
00E0
01E0
03C0
0700
0000
0000
0380
07C0
1DC0
18C0
31C0
7180
6301
EE03
FC02
F006
E00C
E038
E070
79C0
7F80
1E00
ENDCHAR
STARTCHAR ecircumflex
ENCODING 234
SWIDTH 372 0
DWIDTH 13 0
BBX 16 22 0 -1
BITMAP
00C0
03E0
0760
0E70
1018
0000
0380
07C0
1DC0
18C0
31C0
7180
6301
EE03
FC02
F006
E00C
E038
E070
79C0
7F80
1E00
ENDCHAR
STARTCHAR edieresis
ENCODING 235
SWIDTH 372 0
DWIDTH 13 0
BBX 16 21 0 -1
BITMAP
0610
0E78
1E70
0000
0000
0380
07C0
1DC0
18C0
31C0
7180
6301
EE03
FC02
F006
E00C
E038
E070
79C0
7F80
1E00
ENDCHAR
STARTCHAR igrave
ENCODING 236
SWIDTH 274 0
DWIDTH 10 0
BBX 12 22 1 0
BITMAP
8000
E000
F000
3C00
0C00
0000
0000
0000
3800
7800
7000
7000
F000
E010
E020
E060
C0C0
C180
C300
C600
FC00
7800
ENDCHAR
STARTCHAR iacute
ENCODING 237
SWIDTH 274 0
DWIDTH 10 0
BBX 12 22 1 0
BITMAP
0080
0180
0780
0F00
1C00
0000
0000
0000
3800
7800
7000
7000
F000
E010
E020
E060
C0C0
C180
C300
C600
FC00
7800
ENDCHAR
STARTCHAR icircumflex
ENCODING 238
SWIDTH 274 0
DWIDTH 10 0
BBX 13 21 0 0
BITMAP
0700
0F00
1B80
7180
80C0
0000
0000
1C00
3C00
3800
3800
7800
7008
7010
7030
6060
60C0
6180
6300
7E00
3C00
ENDCHAR
STARTCHAR idieresis
ENCODING 239
SWIDTH 274 0
DWIDTH 10 0
BBX 12 20 1 0
BITMAP
6100
F380
E780
0000
0000
0000
3800
7800
7000
7000
F000
E010
E020
E060
C0C0
C180
C300
C600
FC00
7800
ENDCHAR
STARTCHAR eth
ENCODING 240
SWIDTH 393 0
DWIDTH 14 0
BBX 18 25 0 -1
BITMAP
008000
008000
00C000
00C000
007E00
07FE00
0FE000
0E6000
006000
006000
0FE000
3FE000
38E040
70E0C0
70E380
F8E600
F8FC00
DFF000
CFC000
C1C000
C1C000
E38000
F70000
7E0000
380000
ENDCHAR
STARTCHAR ntilde
ENCODING 241
SWIDTH 461 0
DWIDTH 17 0
BBX 20 21 -1 -1
BITMAP
038200
0FFE00
0E7C00
000000
000000
000000
047000
1EF800
1DF800
1F3C00
1E3800
3C3810
383810
383820
387060
3070C0
707180
707380
707700
E07C00
C03800
ENDCHAR
STARTCHAR ograve
ENCODING 242
SWIDTH 393 0
DWIDTH 14 0
BBX 18 23 0 -1
BITMAP
040000
0F0000
0F8000
03C000
00C000
000000
000000
000000
0F0000
3FC000
38C040
70E0C0
70E380
F8E600
F8FC00
DFF000
CFC000
C1C000
C1C000
E38000
F70000
7E0000
380000
ENDCHAR
STARTCHAR oacute
ENCODING 243
SWIDTH 393 0
DWIDTH 14 0
BBX 18 23 0 -1
BITMAP
002000
00E000
01E000
03C000
070000
000000
000000
000000
0F0000
3FC000
38C040
70E0C0
70E380
F8E600
F8FC00
DFF000
CFC000
C1C000
C1C000
E38000
F70000
7E0000
380000
ENDCHAR
STARTCHAR ocircumflex
ENCODING 244
SWIDTH 393 0
DWIDTH 14 0
BBX 18 22 0 -1
BITMAP
018000
07C000
0EC000
3CE000
003000
000000
000000
0F0000
3FC000
38C040
70E0C0
70E380
F8E600
F8FC00
DFF000
CFC000
C1C000
C1C000
E38000
F70000
7E0000
380000
ENDCHAR
STARTCHAR otilde
ENCODING 245
SWIDTH 393 0
DWIDTH 14 0
BBX 18 21 0 -1
BITMAP
0E0800
3FF800
31F000
000000
000000
000000
0F0000
3FC000
38C040
70E0C0
70E380
F8E600
F8FC00
DFF000
CFC000
C1C000
C1C000
E38000
F70000
7E0000
380000
ENDCHAR
STARTCHAR odieresis
ENCODING 246
SWIDTH 393 0
DWIDTH 14 0
BBX 18 21 0 -1
BITMAP
0C2000
1E7000
1CF000
000000
000000
000000
0F0000
3FC000
38C040
70E0C0
70E380
F8E600
F8FC00
DFF000
CFC000
C1C000
C1C000
E38000
F70000
7E0000
380000
ENDCHAR
STARTCHAR divide
ENCODING 247
SWIDTH 350 0
DWIDTH 13 0
BBX 12 12 0 7
BITMAP
0100
0780
0380
0000
0000
FFF0
FFF0
C000
0000
0E00
1E00
0C00
ENDCHAR
STARTCHAR oslash
ENCODING 248
SWIDTH 406 0
DWIDTH 15 0
BBX 19 19 -1 -3
BITMAP
000400
001C00
07F800
0FF000
1C7020
1C3060
3C30C0
3C3380
3E3E00
77FC00
73F000
707000
70E000
70E000
3BC000
7F8000
EC0000
E00000
800000
ENDCHAR
STARTCHAR ugrave
ENCODING 249
SWIDTH 468 0
DWIDTH 17 0
BBX 20 22 0 -1
BITMAP
060000
070000
078000
01E000
006000
000000
000000
0C1800
383800
383800
707800
707000
707010
E0F020
E0F060
E0E0C0
E0E080
E0E180
E1E700
FF7E00
7E7C00
080000
ENDCHAR
STARTCHAR uacute
ENCODING 250
SWIDTH 468 0
DWIDTH 17 0
BBX 20 22 0 -1
BITMAP
002000
007000
00F000
03E000
038000
000000
000000
0C1800
383800
383800
707800
707000
707010
E0F020
E0F060
E0E0C0
E0E080
E0E180
E1E700
FF7E00
7E7C00
080000
ENDCHAR
STARTCHAR ucircumflex
ENCODING 251
SWIDTH 468 0
DWIDTH 17 0
BBX 20 22 0 -1
BITMAP
00E000
01E000
03F000
0E3800
100C00
000000
000000
0C1800
383800
383800
707800
707000
707010
E0F020
E0F060
E0E0C0
E0E080
E0E180
E1E700
FF7E00
7E7C00
080000
ENDCHAR
STARTCHAR udieresis
ENCODING 252
SWIDTH 468 0
DWIDTH 17 0
BBX 20 21 0 -1
BITMAP
030800
0F3C00
0F3800
000000
000000
000000
0C1800
383800
383800
707800
707000
707010
E0F020
E0F060
E0E0C0
E0E080
E0E180
E1E700
FF7E00
7E7C00
080000
ENDCHAR
STARTCHAR yacute
ENCODING 253
SWIDTH 406 0
DWIDTH 15 0
BBX 14 36 -1 -15
BITMAP
0008
001C
003C
00F0
01C0
0000
0000
181C
3C3C
3C1C
381C
3838
3838
7038
7070
7070
60F0
E1F0
E3E0
7F60
7EE0
3CE0
00C0
00C0
01C0
01C0
01C0
0180
0380
0380
0380
0700
0700
0700
0700
0700
ENDCHAR
STARTCHAR thorn
ENCODING 254
SWIDTH 451 0
DWIDTH 16 0
BBX 23 40 -4 -15
BITMAP
003000
007000
007000
007000
00F000
00F000
00E000
00E000
00E000
01C000
01C000
01CF00
019F00
03BF80
03E380
03C380
038382
070306
070704
070708
060E18
079E30
0FFCE0
0FFFC0
0DFF80
1DE400
1C0000
1C0000
1C0000
380000
380000
380000
380000
700000
700000
700000
700000
F00000
F00000
600000
ENDCHAR
STARTCHAR ydieresis
ENCODING 255
SWIDTH 406 0
DWIDTH 15 0
BBX 14 35 -1 -15
BITMAP
0308
073C
0F38
0000
0000
0000
181C
3C3C
3C1C
381C
3838
3838
7038
7070
7070
60F0
E1F0
E3E0
7F60
7EE0
3CE0
00C0
00C0
01C0
01C0
01C0
0180
0380
0380
0380
0700
0700
0700
0700
0700
ENDCHAR
STARTCHAR dotlessi
ENCODING 305
SWIDTH 274 0
DWIDTH 10 0
BBX 12 14 1 0
BITMAP
3800
7800
7000
7000
F000
E010
E020
E060
C0C0
C180
C300
C600
FC00
7800
ENDCHAR
STARTCHAR Lslash
ENCODING 321
SWIDTH 492 0
DWIDTH 18 0
BBX 23 33 -4 -7
BITMAP
00007E
0000FE
0001FE
0001CE
0003CE
00038E
00039C
0007BC
000778
0007F0
0007E0
061FC0
07FF00
03FE00
000E00
000E00
001C00
001FC0
00FFC0
03FC00
03F800
023800
003800
007000
007000
00E000
1FE000
7FC000
7BF008
E7F830
7E3FF0
381FF0
0007E0
ENDCHAR
STARTCHAR lslash
ENCODING 322
SWIDTH 218 0
DWIDTH 8 0
BBX 12 26 -2 -1
BITMAP
00C0
03C0
03C0
03C0
0380
0380
0380
0780
0700
0700
07F0
3FF0
FF80
FE00
8E00
0E00
1C00
1C00
1C00
1C00
3800
3800
3800
3800
7000
3000
ENDCHAR
STARTCHAR OE
ENCODING 338
SWIDTH 918 0
DWIDTH 33 0
BBX 34 34 0 -7
BITMAP
0038000800
007F00FF00
00FF83E380
01F1878180
03E1CF01C0
0781DE01C0
0701FC0380
0F01FC0380
0E01F80780
1E01F80F00
1C01F81F00
1C01F80200
3C01F80000
3801F80000
3801FC0000
7801DE0000
7001CFE000
7001DFE000
7001FCC000
7003F00000
F003E00000
F003C00000
F003800000
F007800000
F007800600
F007800400
700F800C00
700F800C00
701FC01800
703BC03000
3879F0E000
3CF1FFC000
1FC07F8000
0780040000
ENDCHAR
STARTCHAR oe
ENCODING 339
SWIDTH 583 0
DWIDTH 21 0
BBX 24 16 0 -1
BITMAP
000380
0F87C0
3FDDC0
38D8C0
70F1C0
70F180
F8F381
FCEF01
DFFC02
C7F806
C1E00C
C1E018
E3E070
F779C0
7E7F80
381E00
ENDCHAR
STARTCHAR Scaron
ENCODING 352
SWIDTH 474 0
DWIDTH 17 0
BBX 23 40 -2 -7
BITMAP
000602
00071C
0003F0
0001E0
0001C0
000000
000F00
007FC0
00F8E0
01E0E0
03C070
078070
070070
0700F0
0700E0
0700E0
0701C0
078000
078000
03C000
01E000
01F000
00F800
007C00
003C00
001C00
001E00
001E00
000E00
000E00
180E00
700E00
F00C00
F01C00
F01C00
783800
787000
3FF000
3FE000
0F0000
ENDCHAR
STARTCHAR scaron
ENCODING 353
SWIDTH 351 0
DWIDTH 13 0
BBX 13 24 0 -1
BITMAP
1808
0E70
06E0
0780
0300
0000
0000
0300
0F00
1F00
1E00
1E00
1E00
3700
2700
6380
C380
01C0
01C0
31C0
7180
7980
3F00
1E00
ENDCHAR
STARTCHAR Ydieresis
ENCODING 376
SWIDTH 532 0
DWIDTH 19 0
BBX 21 39 0 -7
BITMAP
001840
0039E0
0079C0
000000
000000
000000
078078
0780F0
0700F0
0F00F0
0F00E0
0E00E0
1E01E0
1E01C0
1C01C0
1C01C0
3C03C0
380380
380380
380780
380780
780700
700F00
701F00
701F00
783600
78E600
3FCE00
1F8E00
000C00
001C00
001C00
003800
203800
707000
FFE000
FFC000
7F8000
180000
ENDCHAR
STARTCHAR Zcaron
ENCODING 381
SWIDTH 455 0
DWIDTH 16 0
BBX 22 39 -3 -6
BITMAP
000404
000738
000370
0003E0
000180
000000
000000
01FFF0
03FFF8
03FFF8
030078
000078
000070
0000F0
0001E0
0001E0
0003C0
000780
000F00
000F00
001E00
003C00
007800
00F000
00E000
01E000
03C000
078000
070000
0E0000
1E0000
1C0000
380000
780000
700000
E3FF80
FFFF00
FFFF00
7C7E00
ENDCHAR
STARTCHAR zcaron
ENCODING 382
SWIDTH 349 0
DWIDTH 13 0
BBX 20 38 -5 -16
BITMAP
00E060
007380
003F00
003E00
001800
000000
000000
000000
03FE00
07FE00
078E00
040C00
001C00
001800
003800
007010
006030
00E060
03FCC0
03CD80
038F00
011C00
007C00
01DC00
039800
0F3800
0C3800
183000
387000
707000
70E000
60E000
E1C000
E3C000
E78000
7F0000
7E0000
180000
ENDCHAR
STARTCHAR circumflex
ENCODING 710
SWIDTH 567 0
DWIDTH 20 0
BBX 10 5 7 20
BITMAP
0700
0F00
1F80
71C0
8040
ENDCHAR
STARTCHAR caron
ENCODING 711
SWIDTH 567 0
DWIDTH 20 0
BBX 10 5 7 20
BITMAP
E040
7380
3F00
3E00
1800
ENDCHAR
STARTCHAR breve
ENCODING 728
SWIDTH 567 0
DWIDTH 20 0
BBX 9 5 8 19
BITMAP
C180
C380
EF00
7E00
1000
ENDCHAR
STARTCHAR dotaccent
ENCODING 729
SWIDTH 567 0
DWIDTH 20 0
BBX 4 3 10 21
BITMAP
30
70
F0
ENDCHAR
STARTCHAR ring
ENCODING 730
SWIDTH 567 0
DWIDTH 20 0
BBX 5 4 10 20
BITMAP
70
D8
D8
F0
ENDCHAR
STARTCHAR ogonek
ENCODING 731
SWIDTH 567 0
DWIDTH 20 0
BBX 9 6 8 -4
BITMAP
2000
6000
E000
E180
FE00
7C00
ENDCHAR
STARTCHAR tilde
ENCODING 732
SWIDTH 567 0
DWIDTH 20 0
BBX 11 3 7 21
BITMAP
3820
FFE0
E7C0
ENDCHAR
STARTCHAR hungarumlaut
ENCODING 733
SWIDTH 567 0
DWIDTH 20 0
BBX 12 5 6 20
BITMAP
0410
0E30
3EF0
79E0
E380
ENDCHAR
STARTCHAR endash
ENCODING 8211
SWIDTH 353 0
DWIDTH 13 0
BBX 13 4 -1 9
BITMAP
07E0
7FF8
7FF8
8000
ENDCHAR
STARTCHAR emdash
ENCODING 8212
SWIDTH 508 0
DWIDTH 18 0
BBX 19 3 -1 10
BITMAP
0FFF00
7FFFE0
FFFFE0
ENDCHAR
STARTCHAR quoteleft
ENCODING 8216
SWIDTH 155 0
DWIDTH 6 0
BBX 5 8 1 17
BITMAP
08
10
30
60
70
78
F8
70
ENDCHAR
STARTCHAR quoteright
ENCODING 8217
SWIDTH 154 0
DWIDTH 6 0
BBX 5 8 2 16
BITMAP
70
F8
F0
70
30
60
40
80
ENDCHAR
STARTCHAR quotesinglbase
ENCODING 8218
SWIDTH 188 0
DWIDTH 7 0
BBX 4 8 -1 -4
BITMAP
20
F0
F0
F0
70
60
40
C0
ENDCHAR
STARTCHAR quotedblleft
ENCODING 8220
SWIDTH 289 0
DWIDTH 10 0
BBX 10 8 1 17
BITMAP
0840
1080
3180
6300
7380
7FC0
FFC0
7780
ENDCHAR
STARTCHAR quotedblright
ENCODING 8221
SWIDTH 288 0
DWIDTH 10 0
BBX 9 8 2 17
BITMAP
2100
7380
FF80
F780
7380
3100
6300
C600
ENDCHAR
STARTCHAR quotedblbase
ENCODING 8222
SWIDTH 323 0
DWIDTH 12 0
BBX 9 8 -1 -4
BITMAP
2300
F780
F780
FF80
7300
6300
4600
C400
ENDCHAR
STARTCHAR bullet
ENCODING 8226
SWIDTH 180 0
DWIDTH 7 0
BBX 6 8 0 6
BITMAP
78
78
FC
FC
F8
F8
F0
60
ENDCHAR
STARTCHAR ellipsis
ENCODING 8230
SWIDTH 614 0
DWIDTH 22 0
BBX 19 4 -1 -1
BITMAP
3060E0
F8F1E0
F1F3E0
E0C180
ENDCHAR
STARTCHAR perthousand
ENCODING 8240
SWIDTH 851 0
DWIDTH 31 0
BBX 29 27 0 -1
BITMAP
07803800
0FC07000
1CC0E000
38E1C000
30E1C000
30E38000
70C70000
70C60000
71CE0000
319C0000
3F980000
3F380000
00700000
00600000
00C380E0
01CFC3F0
019C6318
03986718
07386E18
06306E18
0E306C18
1C30EC38
3830CC30
3831CC70
703B8FE0
F01F07C0
40040300
ENDCHAR
STARTCHAR guilsinglleft
ENCODING 8249
SWIDTH 202 0
DWIDTH 7 0
BBX 8 15 -1 -1
BITMAP
03
06
0C
18
38
70
E0
E0
E0
60
70
30
18
18
08
ENDCHAR
STARTCHAR guilsinglright
ENCODING 8250
SWIDTH 202 0
DWIDTH 7 0
BBX 9 15 -3 -1
BITMAP
1800
1800
0C00
0E00
0600
0700
0300
0380
0700
0E00
1C00
1800
3000
6000
C000
ENDCHAR
STARTCHAR fraction
ENCODING 8260
SWIDTH 600 0
DWIDTH 22 0
BBX 21 27 1 -1
BITMAP
000038
000070
0000E0
0001C0
000180
000380
000700
000600
000E00
001C00
001800
003000
007000
006000
00C000
01C000
018000
030000
070000
060000
0E0000
1C0000
380000
380000
700000
F00000
C00000
ENDCHAR
STARTCHAR Euro
ENCODING 8364
SWIDTH 334 0
DWIDTH 12 0
BBX 16 22 -2 2
BITMAP
0008
007E
00E6
01C3
0382
0300
0700
0600
0E00
3FF8
7C30
1C00
7FE0
FFE0
1800
1800
1800
1818
1830
0C70
07C0
0100
ENDCHAR
STARTCHAR minus
ENCODING 8722
SWIDTH 353 0
DWIDTH 13 0
BBX 13 4 -1 9
BITMAP
07E0
7FF8
7FF8
8000
ENDCHAR
STARTCHAR fi
ENCODING 64257
SWIDTH 549 0
DWIDTH 20 0
BBX 26 42 -3 -17
BITMAP
00F00000
00F00000
00F01800
00F03800
00F07800
00E03000
00E00000
00E00000
01C00000
01C00000
01C00000
0180E000
0381E000
0381C000
0301C000
037FC000
07F38040
0F838080
1E038180
1E030300
1C030600
0E030C00
1F031800
1F83F000
19C1E000
18E00000
38600000
38600000
30700000
30700000
70700000
70700000
70600000
60E00000
E0E00000
E1C00000
E3C00000
C7800000
FF000000
FE000000
FC000000
70000000
ENDCHAR
STARTCHAR fl
ENCODING 64258
SWIDTH 516 0
DWIDTH 19 0
BBX 22 42 -3 -17
BITMAP
00F018
00F03C
00F03C
00F038
00F038
00E038
00E078
00E070
01C070
01C070
01C0F0
0180E0
0380E0
0380E0
0300E0
037FC0
07F1C0
0F81C0
1E01C0
1E0380
1C0380
0E0380
1F0380
1F8700
19C700
18E300
386000
386000
307000
307000
707000
707000
706000
60E000
E0E000
E1C000
E3C000
C78000
FF0000
FE0000
FC0000
700000
ENDCHAR
STARTCHAR .notdef
ENCODING -1
SWIDTH 280 0
DWIDTH 10 0
BBX 1 1 0 0
BITMAP
00
ENDCHAR
ENDFONT
